<svg xmlns="http://www.w3.org/2000/svg" width="642" height="377" version="1.0" viewBox="0 0 481.92 283.5"><path fill="#f63b00" d="M48.087 174.037c0 4.934.449 9.418 1.12 13.902l.9 4.036c.445 2.015 1.12 3.585 1.792 5.378l1.567 3.141c5.156 8.965 11.21 13.227 26.007 16.59 6.95 1.566 14.57 1.566 21.97 1.566 8.296 0 17.937-1.793 25.558-3.136l3.586-.672c11.66-1.57 21.074-6.504 23.765-23.766l.672-4.707c.672-5.605.899-11.656.899-17.488v-5.38c0-1.343-.227-2.464-.227-3.812v-4.257c0-2.914-.223-5.606-.223-8.52v-5.828c0-3.813-.226-7.625-.226-11.434v-7.625c0-4.707-.223-9.191-.223-13.898v-4.035c0-1.344-.222-2.692-.222-4.035 0-3.364-.227-6.5-.227-9.864v-4.035c0-1.348-.223-2.691-.223-4.035 0-4.711-.449-9.418-.449-14.125v-2.02c-.449-4.48-.672-8.515-1.12-11.656l-11.884.45c-2.015 0-3.808.222-5.828.222l-37.664 1.793c-7.172.676-14.57.45-21.746.898-9.191.45-15.691-2.69-15.691 8.97l1.793 15.019c0 1.12.449 1.344 1.343 1.344 13.004-.895 26.008-.895 39.012-1.793l15.469-.672h2.015v2.015c0 5.606.45 11.66.672 17.266l.45 19.504c0 5.828.449 10.762.449 17.262v25.78c0 5.829-.227 12.106-.899 17.934v1.797c-1.12 8.07-3.363 13.899-16.812 13.899-8.969 0-11.883-5.828-12.778-10.985-1.57-6.726-2.02-13.004-1.796-19.28-13.676-1.345-26.903-1.794-40.13-1.345 0 3.137-.671 6.5-.671 9.637Zm0 0"/><path fill="#e4aa48" d="M169.81 91.537c0 20.625 7.843 36.992 26.003 44.164 4.035 1.57 8.742 3.14 13.004 4.484l4.707 1.57c1.57.45 3.14 1.122 4.707 1.794l5.156 2.02c4.711 2.015 10.313 3.808 13.453 10.085l1.121 2.692c1.57 5.156 2.016 8.52 2.016 13.898 0 1.121-.223 2.242-.445 3.14l-.45 1.567c-.671 4.711-1.792 7.399-4.933 10.54l-1.121.894c-2.688 2.02-6.5 2.691-10.086 2.691-7.625 0-12.11-1.121-14.574-15.242-2.016-8.52 2.02-17.266-9.414-17.266-8.97 0-18.832 0-27.352.227-4.484 0-5.156 2.687-5.156 9.64v1.567c0 1.57.222 2.914.449 4.262l.672 2.914c.672 2.914 1.121 5.605 2.465 8.293l1.12 2.691c5.606 11.434 8.97 18.383 27.352 21.746l5.829.672c2.464.227 5.378.45 8.07.45h5.828c6.504 0 13.453 0 19.73-1.345l6.727-1.347c10.984-2.688 20.176-7.172 24.883-15.02v-.449c3.363-5.156 3.812-10.984 3.812-17.484 0-13.227-2.914-25.559-8.297-34.973-6.05-11.434-16.59-13.902-29.59-17.71-4.261-1.349-8.746-2.692-13.003-4.263l-10.09-4.257c-7.172-3.141-11.656-7.848-11.656-18.61v-4.035c0-8.52 1.57-15.469 8.742-17.484 1.57-.45 3.14-.45 5.156-.45 5.379 0 8.297.895 10.984 3.137 4.262 4.262 4.262 12.332 5.157 17.938l.672 4.707c.898 6.726.449 5.156 2.019 9.863 8.293 2.02 28.473 2.691 34.078-1.57 2.016-3.586 1.567-18.157.895-21.97-.45-3.585-.672-7.398-1.793-10.76l-1.344-3.813c-5.832-13.45-17.711-19.278-44.84-19.278h-8.293c-2.02 0-4.035 0-6.055.223l-7.398.672-6.277.898-4.707 1.344c-8.293 3.14-13.227 9.418-15.02 15.024-1.121 2.914-2.914 10.984-2.914 21.519ZM331.446 197.803c5.602 0 12.106-.223 18.157-.223l6.949-.45c12.781-1.347 26.008-5.382 28.922-16.816l2.465-9.863c.449-3.586.675-7.848.675-12.777v-4.707c0-2.918-.226-6.278-.675-8.969l-.446-2.914c-2.02-11.211-7.175-18.61-17.039-23.094 6.278-3.808 9.414-8.515 9.864-15.242l.449-6.727c.449-5.828.672-8.742.672-10.984v-2.02c0-12.777-3.137-30.039-22.645-35.421l-3.36-.672c-7.847-1.57-18.16-1.793-29.144-1.793H315.53c-8.52 0-17.711 1.12-26.68 1.12-.45 29.145-1.57 103.798-3.137 149.532 12.777 1.348 28.246 2.02 45.734 2.02Zm1.122-133.168c3.586 0 7.394.449 10.757 1.343l2.692 1.122c5.605 2.69 7.847 8.52 7.847 17.488v1.57c0 4.485-1.12 10.086-2.468 16.363l-.446 2.243c-4.035 4.035-5.156 4.71-13.004 4.71h-1.57c-3.363 0-10.086 0-13.898-1.347l-.899-.672c0-12.105-.672-23.09-.672-32.281v-3.59c0-2.016 0-4.035.227-5.828 3.586-.672 7.621-1.121 11.434-1.121Zm6.05 62.101c10.313 1.121 12.332 8.52 13.676 22.418 0 4.934.223 9.864.223 15.02-.446 9.418-2.465 14.347-15.242 14.347h-2.02c-4.484-.222-10.984-.894-16.14-1.343-.45-9.864.222-17.04.671-32.285v-4.036l.45-11.207c4.484-1.793 10.535-2.914 18.382-2.914ZM422.015 161.037h-6.277c-6.726 0-17.262.445-17.262 16.14v1.344c0 6.504 2.914 9.418 14.348 9.418h1.793c8.969-.671 17.039-3.59 18.16-8.746 0-1.793.445-3.136.445-5.156 0-6.05 1.122-11.207-11.207-13Zm0 0"/></svg>